# xmcd
#
# Track frame offsets: 
#        150
#        11010
#        27135
#        46477
#        62015
#        76557
#        89552
#        101627
#        118737
#        134277
#        152447
#
# Disc length: 2196 seconds
#
# Revision: 2
# Processed by: cddbd v1.5.1PL0 Copyright (c) Steve Scherf et al.
# Submitted via: ExactAudioCopy v0.95a5
#
DISCID=8008920b
DTITLE=Joy White - Between Midnight and Hindsight
DYEAR=1992
DGENRE=Country
TTITLE0=Little Tears
TTITLE1=True Confessions
TTITLE2=Those Shoes
TTITLE3=Wherever You Are
TTITLE4=Why Do I Feel So Good
TTITLE5=Wishful Thinking
TTITLE6=Let's Talk About Love Again
TTITLE7=Bittersweet End
TTITLE8=Hey Hey Mama
TTITLE9=Cold Day In July
TTITLE10=It's Amazing
EXTD=
EXTT0=
EXTT1=
EXTT2=
EXTT3=
EXTT4=
EXTT5=
EXTT6=
EXTT7=
EXTT8=
EXTT9=
EXTT10=
PLAYORDER=
